<svg xmlns="http://www.w3.org/2000/svg" width="48" height="48" viewBox="0 0 48 48" fill="none">
  <path d="M36 32H12C8.68629 32 6 29.3137 6 26V26C6 22.6863 8.68629 20 12 20H13C13 15.5817 16.5817 12 21 12H23C27.4183 12 31 15.5817 31 20V20C35.4183 20 39 23.5817 39 28V28C39 30.2091 37.2091 32 35 32H36Z" fill="currentColor" opacity="0.1"/>
  <path d="M36 30H12C8.68629 30 6 27.3137 6 24V24C6 20.6863 8.68629 18 12 18H13C13 13.5817 16.5817 10 21 10H23C27.4183 10 31 13.5817 31 18V18C35.4183 18 39 21.5817 39 26V26C39 28.2091 37.2091 30 35 30H36Z" stroke="currentColor" stroke-width="2" fill="none"/>
  <circle cx="24" cy="24" r="2" fill="currentColor"/>
</svg>
