<svg xmlns="http://www.w3.org/2000/svg" width="48" height="48" viewBox="0 0 48 48" fill="none">
  <rect x="4" y="8" width="12" height="8" rx="2" fill="currentColor" opacity="0.1"/>
  <rect x="4" y="8" width="12" height="8" rx="2" stroke="currentColor" stroke-width="1.5" fill="none"/>
  <rect x="18" y="4" width="12" height="8" rx="2" fill="currentColor" opacity="0.2"/>
  <rect x="18" y="4" width="12" height="8" rx="2" stroke="currentColor" stroke-width="1.5" fill="none"/>
  <rect x="32" y="8" width="12" height="8" rx="2" fill="currentColor" opacity="0.1"/>
  <rect x="32" y="8" width="12" height="8" rx="2" stroke="currentColor" stroke-width="1.5" fill="none"/>
  <rect x="4" y="32" width="12" height="8" rx="2" fill="currentColor" opacity="0.3"/>
  <rect x="4" y="32" width="12" height="8" rx="2" stroke="currentColor" stroke-width="1.5" fill="none"/>
  <rect x="18" y="36" width="12" height="8" rx="2" fill="currentColor" opacity="0.4"/>
  <rect x="18" y="36" width="12" height="8" rx="2" stroke="currentColor" stroke-width="1.5" fill="none"/>
  <rect x="32" y="32" width="12" height="8" rx="2" fill="currentColor" opacity="0.3"/>
  <rect x="32" y="32" width="12" height="8" rx="2" stroke="currentColor" stroke-width="1.5" fill="none"/>
  <rect x="18" y="20" width="12" height="8" rx="2" fill="currentColor" opacity="0.5"/>
  <rect x="18" y="20" width="12" height="8" rx="2" stroke="currentColor" stroke-width="1.5" fill="none"/>
  <path d="M16 12L18 8" stroke="currentColor" stroke-width="1.5"/>
  <path d="M30 8L32 12" stroke="currentColor" stroke-width="1.5"/>
  <path d="M24 12V20" stroke="currentColor" stroke-width="1.5"/>
  <path d="M24 28V36" stroke="currentColor" stroke-width="1.5"/>
  <path d="M16 36L18 32" stroke="currentColor" stroke-width="1.5"/>
  <path d="M30 32L32 36" stroke="currentColor" stroke-width="1.5"/>
</svg>
