<svg xmlns="http://www.w3.org/2000/svg" width="120" height="120" viewBox="0 0 120 120" fill="none">
  <!-- Background circle -->
  <circle cx="60" cy="60" r="55" fill="currentColor" opacity="0.05"/>
  <circle cx="60" cy="60" r="55" stroke="currentColor" opacity="0.1" stroke-width="2"/>
  
  <!-- Central chip/processor -->
  <rect x="40" y="40" width="40" height="40" rx="4" fill="currentColor" opacity="0.1"/>
  <rect x="40" y="40" width="40" height="40" rx="4" stroke="currentColor" stroke-width="2"/>
  <rect x="44" y="44" width="32" height="32" rx="2" fill="currentColor" opacity="0.2"/>
  
  <!-- Grid pattern inside chip -->
  <line x1="48" y1="44" x2="48" y2="76" stroke="currentColor" opacity="0.3" stroke-width="1"/>
  <line x1="52" y1="44" x2="52" y2="76" stroke="currentColor" opacity="0.3" stroke-width="1"/>
  <line x1="56" y1="44" x2="56" y2="76" stroke="currentColor" opacity="0.3" stroke-width="1"/>
  <line x1="60" y1="44" x2="60" y2="76" stroke="currentColor" opacity="0.3" stroke-width="1"/>
  <line x1="64" y1="44" x2="64" y2="76" stroke="currentColor" opacity="0.3" stroke-width="1"/>
  <line x1="68" y1="44" x2="68" y2="76" stroke="currentColor" opacity="0.3" stroke-width="1"/>
  <line x1="72" y1="44" x2="72" y2="76" stroke="currentColor" opacity="0.3" stroke-width="1"/>
  
  <line x1="44" y1="48" x2="76" y2="48" stroke="currentColor" opacity="0.3" stroke-width="1"/>
  <line x1="44" y1="52" x2="76" y2="52" stroke="currentColor" opacity="0.3" stroke-width="1"/>
  <line x1="44" y1="56" x2="76" y2="56" stroke="currentColor" opacity="0.3" stroke-width="1"/>
  <line x1="44" y1="60" x2="76" y2="60" stroke="currentColor" opacity="0.3" stroke-width="1"/>
  <line x1="44" y1="64" x2="76" y2="64" stroke="currentColor" opacity="0.3" stroke-width="1"/>
  <line x1="44" y1="68" x2="76" y2="68" stroke="currentColor" opacity="0.3" stroke-width="1"/>
  <line x1="44" y1="72" x2="76" y2="72" stroke="currentColor" opacity="0.3" stroke-width="1"/>
  
  <!-- Connection pins/circuits -->
  <!-- Top -->
  <rect x="58" y="30" width="4" height="10" rx="1" fill="currentColor" opacity="0.4"/>
  <rect x="54" y="26" width="4" height="8" rx="1" fill="currentColor" opacity="0.3"/>
  <rect x="62" y="26" width="4" height="8" rx="1" fill="currentColor" opacity="0.3"/>
  
  <!-- Bottom -->
  <rect x="58" y="80" width="4" height="10" rx="1" fill="currentColor" opacity="0.4"/>
  <rect x="54" y="86" width="4" height="8" rx="1" fill="currentColor" opacity="0.3"/>
  <rect x="62" y="86" width="4" height="8" rx="1" fill="currentColor" opacity="0.3"/>
  
  <!-- Left -->
  <rect x="30" y="58" width="10" height="4" rx="1" fill="currentColor" opacity="0.4"/>
  <rect x="26" y="54" width="8" height="4" rx="1" fill="currentColor" opacity="0.3"/>
  <rect x="26" y="62" width="8" height="4" rx="1" fill="currentColor" opacity="0.3"/>
  
  <!-- Right -->
  <rect x="80" y="58" width="10" height="4" rx="1" fill="currentColor" opacity="0.4"/>
  <rect x="86" y="54" width="8" height="4" rx="1" fill="currentColor" opacity="0.3"/>
  <rect x="86" y="62" width="8" height="4" rx="1" fill="currentColor" opacity="0.3"/>
  
  <!-- Corner connections -->
  <circle cx="25" cy="25" r="3" fill="currentColor" opacity="0.2"/>
  <circle cx="95" cy="25" r="3" fill="currentColor" opacity="0.2"/>
  <circle cx="25" cy="95" r="3" fill="currentColor" opacity="0.2"/>
  <circle cx="95" cy="95" r="3" fill="currentColor" opacity="0.2"/>
  
  <!-- Circuit traces -->
  <path d="M25 25 L40 40" stroke="currentColor" opacity="0.2" stroke-width="1.5" stroke-linecap="round"/>
  <path d="M95 25 L80 40" stroke="currentColor" opacity="0.2" stroke-width="1.5" stroke-linecap="round"/>
  <path d="M25 95 L40 80" stroke="currentColor" opacity="0.2" stroke-width="1.5" stroke-linecap="round"/>
  <path d="M95 95 L80 80" stroke="currentColor" opacity="0.2" stroke-width="1.5" stroke-linecap="round"/>
  
  <!-- Central indicator -->
  <circle cx="60" cy="60" r="4" fill="currentColor" opacity="0.5"/>
  <circle cx="60" cy="60" r="2" fill="currentColor"/>
</svg>
