<svg xmlns="http://www.w3.org/2000/svg" width="120" height="120" viewBox="0 0 120 120" fill="none">
  <!-- Background ecosystem -->
  <circle cx="60" cy="60" r="55" fill="currentColor" opacity="0.03"/>
  
  <!-- Data flow network (central concept) -->
  <circle cx="60" cy="60" r="8" fill="currentColor" opacity="0.2"/>
  <circle cx="60" cy="60" r="4" fill="currentColor" opacity="0.4"/>
  
  <!-- Nodes representing different tech aspects -->
  <!-- Cloud/Infrastructure -->
  <circle cx="30" cy="30" r="6" fill="currentColor" opacity="0.15"/>
  <circle cx="30" cy="30" r="3" fill="currentColor" opacity="0.3"/>
  
  <!-- Analytics/Data -->
  <circle cx="90" cy="30" r="6" fill="currentColor" opacity="0.15"/>
  <rect x="87" y="25" width="6" height="2" rx="1" fill="currentColor" opacity="0.4"/>
  <rect x="87" y="28" width="4" height="2" rx="1" fill="currentColor" opacity="0.3"/>
  <rect x="87" y="31" width="5" height="2" rx="1" fill="currentColor" opacity="0.5"/>
  
  <!-- DevOps/Automation -->
  <circle cx="90" cy="90" r="6" fill="currentColor" opacity="0.15"/>
  <path d="M87 87 L90 90 L93 87" stroke="currentColor" opacity="0.4" stroke-width="1.5" fill="none"/>
  <path d="M87 93 L90 90 L93 93" stroke="currentColor" opacity="0.4" stroke-width="1.5" fill="none"/>
  
  <!-- Development/Code -->
  <circle cx="30" cy="90" r="6" fill="currentColor" opacity="0.15"/>
  <rect x="27" y="87" width="6" height="6" rx="1" stroke="currentColor" opacity="0.3" stroke-width="1" fill="none"/>
  <rect x="28" y="88" width="4" height="1" fill="currentColor" opacity="0.4"/>
  <rect x="28" y="90" width="3" height="1" fill="currentColor" opacity="0.3"/>
  <rect x="28" y="92" width="4" height="1" fill="currentColor" opacity="0.4"/>
  
  <!-- Secondary nodes -->
  <circle cx="20" cy="60" r="4" fill="currentColor" opacity="0.1"/>
  <circle cx="100" cy="60" r="4" fill="currentColor" opacity="0.1"/>
  <circle cx="60" cy="20" r="4" fill="currentColor" opacity="0.1"/>
  <circle cx="60" cy="100" r="4" fill="currentColor" opacity="0.1"/>
  
  <!-- Connection network -->
  <!-- From center to main nodes -->
  <path d="M60 60 L30 30" stroke="currentColor" opacity="0.2" stroke-width="1.5"/>
  <path d="M60 60 L90 30" stroke="currentColor" opacity="0.2" stroke-width="1.5"/>
  <path d="M60 60 L90 90" stroke="currentColor" opacity="0.2" stroke-width="1.5"/>
  <path d="M60 60 L30 90" stroke="currentColor" opacity="0.2" stroke-width="1.5"/>
  
  <!-- To secondary nodes -->
  <path d="M60 60 L20 60" stroke="currentColor" opacity="0.15" stroke-width="1"/>
  <path d="M60 60 L100 60" stroke="currentColor" opacity="0.15" stroke-width="1"/>
  <path d="M60 60 L60 20" stroke="currentColor" opacity="0.15" stroke-width="1"/>
  <path d="M60 60 L60 100" stroke="currentColor" opacity="0.15" stroke-width="1"/>
  
  <!-- Inter-connections (showing ecosystem) -->
  <path d="M30 30 L90 30" stroke="currentColor" opacity="0.08" stroke-width="1" stroke-dasharray="2,2"/>
  <path d="M90 30 L90 90" stroke="currentColor" opacity="0.08" stroke-width="1" stroke-dasharray="2,2"/>
  <path d="M90 90 L30 90" stroke="currentColor" opacity="0.08" stroke-width="1" stroke-dasharray="2,2"/>
  <path d="M30 90 L30 30" stroke="currentColor" opacity="0.08" stroke-width="1" stroke-dasharray="2,2"/>
  
  <!-- Data flow particles/dots -->
  <circle cx="45" cy="45" r="1.5" fill="currentColor" opacity="0.4"/>
  <circle cx="75" cy="45" r="1.5" fill="currentColor" opacity="0.3"/>
  <circle cx="75" cy="75" r="1.5" fill="currentColor" opacity="0.4"/>
  <circle cx="45" cy="75" r="1.5" fill="currentColor" opacity="0.3"/>
  
  <circle cx="40" cy="60" r="1" fill="currentColor" opacity="0.3"/>
  <circle cx="80" cy="60" r="1" fill="currentColor" opacity="0.3"/>
  <circle cx="60" cy="40" r="1" fill="currentColor" opacity="0.3"/>
  <circle cx="60" cy="80" r="1" fill="currentColor" opacity="0.3"/>
  
  <!-- Orbital rings showing integration -->
  <circle cx="60" cy="60" r="25" stroke="currentColor" opacity="0.08" stroke-width="1" fill="none" stroke-dasharray="3,3"/>
  <circle cx="60" cy="60" r="40" stroke="currentColor" opacity="0.05" stroke-width="1" fill="none" stroke-dasharray="4,4"/>
  
  <!-- Central pulse -->
  <circle cx="60" cy="60" r="12" stroke="currentColor" opacity="0.1" stroke-width="1" fill="none"/>
</svg>
