<svg xmlns="http://www.w3.org/2000/svg" width="48" height="48" viewBox="0 0 48 48" fill="none">
  <circle cx="24" cy="24" r="16" stroke="currentColor" stroke-width="2" fill="none"/>
  <path d="M24 8L28 16L36 12L32 20L40 24L32 28L36 36L28 32L24 40L20 32L12 36L16 28L8 24L16 20L12 12L20 16L24 8Z" fill="currentColor" opacity="0.1"/>
  <circle cx="24" cy="24" r="6" fill="currentColor" opacity="0.3"/>
  <circle cx="24" cy="24" r="6" stroke="currentColor" stroke-width="2" fill="none"/>
  <rect x="18" y="14" width="4" height="6" rx="1" fill="currentColor" opacity="0.6"/>
  <rect x="26" y="12" width="4" height="8" rx="1" fill="currentColor" opacity="0.7"/>
  <rect x="32" y="16" width="4" height="4" rx="1" fill="currentColor" opacity="0.5"/>
  <rect x="12" y="18" width="4" height="4" rx="1" fill="currentColor" opacity="0.4"/>
  <rect x="18" y="28" width="4" height="6" rx="1" fill="currentColor" opacity="0.6"/>
  <rect x="26" y="28" width="4" height="8" rx="1" fill="currentColor" opacity="0.7"/>
  <rect x="32" y="28" width="4" height="4" rx="1" fill="currentColor" opacity="0.5"/>
  <rect x="12" y="26" width="4" height="4" rx="1" fill="currentColor" opacity="0.4"/>
</svg>
