<svg xmlns="http://www.w3.org/2000/svg" width="48" height="48" viewBox="0 0 48 48" fill="none">
  <circle cx="8" cy="24" r="4" fill="#60a5fa" opacity="0.4"/>
  <circle cx="8" cy="24" r="4" stroke="#2563eb" stroke-width="2" fill="none"/>
  <rect x="16" y="20" width="8" height="8" rx="2" fill="#fbbf24" opacity="0.5"/>
  <rect x="16" y="20" width="8" height="8" rx="2" stroke="#f59e0b" stroke-width="2" fill="none"/>
  <circle cx="32" cy="16" r="4" fill="#10b981" opacity="0.5"/>
  <circle cx="32" cy="16" r="4" stroke="#059669" stroke-width="2" fill="none"/>
  <circle cx="32" cy="32" r="4" fill="#10b981" opacity="0.5"/>
  <circle cx="32" cy="32" r="4" stroke="#059669" stroke-width="2" fill="none"/>
  <circle cx="40" cy="24" r="4" fill="#f97316" opacity="0.6"/>
  <circle cx="40" cy="24" r="4" stroke="#ea580c" stroke-width="2" fill="none"/>
  <path d="M12 24H16" stroke="#1e3a8a" stroke-width="2" stroke-linecap="round"/>
  <path d="M24 22L28 16" stroke="#1e3a8a" stroke-width="2" stroke-linecap="round"/>
  <path d="M24 26L28 32" stroke="#1e3a8a" stroke-width="2" stroke-linecap="round"/>
  <path d="M36 18L36 22" stroke="#1e3a8a" stroke-width="2" stroke-linecap="round"/>
  <path d="M36 26L36 30" stroke="#1e3a8a" stroke-width="2" stroke-linecap="round"/>
  <path d="M36 24H36" stroke="#1e3a8a" stroke-width="2" stroke-linecap="round"/>
  <path d="M28 16L30 18" stroke="#1e3a8a" stroke-width="1" stroke-linecap="round"/>
  <path d="M28 32L30 30" stroke="#1e3a8a" stroke-width="1" stroke-linecap="round"/>
</svg>
